<svg width="1320" height="305" viewBox="0 0 1320 305" fill="none" xmlns="http://www.w3.org/2000/svg">
<path d="M187.013 298.65L70.4862 116.119V298.65H0V6.11152H82.7093L190.68 175.197V6.11152H261.166V298.65H187.013Z" fill="white"/>
<path d="M453.169 304.761C431.983 304.761 412.154 301.094 393.684 293.761C375.214 286.155 359.052 275.562 345.199 261.981C331.346 248.399 320.482 232.238 312.604 213.496C304.999 194.482 301.196 173.567 301.196 150.751C301.196 129.021 304.863 109.057 312.197 90.858C319.802 72.6592 330.26 56.7693 343.569 43.1881C357.151 29.3353 373.041 18.742 391.239 11.4082C409.438 3.80273 429.267 0 450.725 0C475.171 0 497.308 4.48178 517.137 13.4453C536.965 22.1373 553.806 34.632 567.659 50.9294C581.511 66.9551 591.833 85.9688 598.624 107.97H507.358C504.914 100.365 500.975 93.71 495.543 88.006C490.11 82.0302 483.455 77.4126 475.578 74.1532C467.701 70.6221 458.738 68.8565 448.688 68.8565C436.193 68.8565 424.649 71.8444 414.056 77.8201C403.734 83.7958 395.45 93.031 389.202 105.526C383.226 117.749 380.239 133.503 380.239 152.788C380.239 169.086 382.955 183.753 388.387 196.791C393.82 209.829 402.24 220.286 413.648 228.164C425.056 235.769 439.588 239.572 457.244 239.572C468.38 239.572 478.023 237.67 486.172 233.868C494.592 230.065 501.654 224.904 507.358 218.385C513.062 211.866 517.273 204.532 519.989 196.384H449.503V135.676H602.291C603.92 159.85 601.612 182.259 595.364 202.903C589.117 223.274 579.474 241.201 566.436 256.684C553.398 271.895 537.237 283.711 517.952 292.131C498.938 300.551 477.344 304.761 453.169 304.761Z" fill="white"/>
<path d="M776.224 304.761C755.037 304.761 735.345 301.094 717.146 293.761C698.947 286.155 682.921 275.562 669.069 261.981C655.487 248.128 644.758 231.966 636.881 213.496C629.276 194.754 625.473 174.246 625.473 151.973C625.473 129.7 629.276 109.328 636.881 90.858C644.758 72.3876 655.487 56.3618 669.069 42.7807C682.921 29.1995 698.947 18.742 717.146 11.4082C735.345 3.80273 755.037 0 776.224 0C797.411 0 817.103 3.80273 835.302 11.4082C853.772 18.742 869.798 29.1995 883.379 42.7807C897.232 56.3618 907.961 72.3876 915.567 90.858C923.444 109.328 927.382 129.7 927.382 151.973C927.382 174.246 923.444 194.754 915.567 213.496C907.961 231.966 897.232 248.128 883.379 261.981C869.798 275.562 853.772 286.155 835.302 293.761C817.103 301.094 797.411 304.761 776.224 304.761ZM776.224 235.905C787.632 235.905 797.818 233.732 806.782 229.386C815.745 225.04 823.215 219.064 829.191 211.459C835.438 203.582 840.055 194.618 843.043 184.568C846.303 174.246 847.933 163.381 847.933 151.973C847.933 140.565 846.303 129.836 843.043 119.786C840.055 109.736 835.438 100.908 829.191 93.3026C823.215 85.6972 815.745 79.7214 806.782 75.3755C797.818 71.0295 787.632 68.8565 776.224 68.8565C764.816 68.8565 754.63 71.0295 745.666 75.3755C736.703 79.7214 729.097 85.6972 722.85 93.3026C716.874 100.908 712.257 109.736 708.997 119.786C706.009 129.836 704.515 140.565 704.515 151.973C704.515 163.381 706.009 174.246 708.997 184.568C712.257 194.618 716.874 203.582 722.85 211.459C729.097 219.064 736.703 225.04 745.666 229.386C754.63 233.732 764.816 235.905 776.224 235.905Z" fill="white"/>
<path d="M1081.34 209.422H1044.27V298.65H967.26V6.11152H1081.34C1106.87 6.11152 1128.74 9.91424 1146.94 17.5197C1165.41 24.8535 1179.53 35.9901 1189.31 50.9294C1199.09 65.597 1203.98 83.9316 1203.98 105.933C1203.98 127.935 1199.09 146.677 1189.31 162.159C1179.53 177.37 1165.41 189.05 1146.94 197.199C1128.74 205.347 1106.87 209.422 1081.34 209.422ZM1080.93 70.8937H1044.27V144.639H1080.93C1096.15 144.639 1107.69 141.108 1115.57 134.046C1123.44 126.984 1127.38 117.885 1127.38 106.748C1127.38 95.3398 1123.44 86.512 1115.57 80.2647C1107.69 74.0174 1096.15 70.8937 1080.93 70.8937Z" fill="white"/>
<path d="M1320 298.65H1242.99V6.11152H1320V298.65Z" fill="white"/>
</svg>
