<svg width="78" height="26" viewBox="0 0 78 26" fill="none" xmlns="http://www.w3.org/2000/svg">
<path d="M0 0.361111H5.092L9.04014 15.4917H9.11393V0.361111H12.73V25.6389H8.56046L3.68985 7.18611H3.61605V25.6389H0V0.361111Z" fill="#212529"/>
<path d="M21.5029 26C19.535 26 18.0344 25.4583 17.0013 24.375C15.9681 23.2676 15.4515 21.6907 15.4515 19.6444V6.35556C15.4515 4.30926 15.9681 2.74444 17.0013 1.66111C18.0344 0.553704 19.535 0 21.5029 0C23.4708 0 24.9714 0.553704 26.0045 1.66111C27.0377 2.74444 27.5543 4.30926 27.5543 6.35556V8.52222H23.7168V6.10278C23.7168 4.44167 23.0157 3.61111 21.6136 3.61111C20.2114 3.61111 19.5104 4.44167 19.5104 6.10278V19.9333C19.5104 21.5704 20.2114 22.3889 21.6136 22.3889C23.0157 22.3889 23.7168 21.5704 23.7168 19.9333V14.9861H21.6874V11.375H27.5543V19.6444C27.5543 21.6907 27.0377 23.2676 26.0045 24.375C24.9714 25.4583 23.4708 26 21.5029 26Z" fill="#212529"/>
<path d="M36.0271 26C34.0346 26 32.5094 25.4463 31.4517 24.3389C30.3939 23.2315 29.865 21.6667 29.865 19.6444V6.35556C29.865 4.33333 30.3939 2.76852 31.4517 1.66111C32.5094 0.553704 34.0346 0 36.0271 0C38.0196 0 39.5447 0.553704 40.6025 1.66111C41.6602 2.76852 42.1891 4.33333 42.1891 6.35556V19.6444C42.1891 21.6667 41.6602 23.2315 40.6025 24.3389C39.5447 25.4463 38.0196 26 36.0271 26ZM36.0271 22.3889C37.4292 22.3889 38.1303 21.5583 38.1303 19.8972V6.10278C38.1303 4.44167 37.4292 3.61111 36.0271 3.61111C34.6249 3.61111 33.9239 4.44167 33.9239 6.10278V19.8972C33.9239 21.5583 34.6249 22.3889 36.0271 22.3889Z" fill="#212529"/>
<path d="M50.8009 26C48.8084 26 47.2832 25.4463 46.2255 24.3389C45.1677 23.2315 44.6388 21.6667 44.6388 19.6444V6.35556C44.6388 4.33333 45.1677 2.76852 46.2255 1.66111C47.2832 0.553704 48.8084 0 50.8009 0C52.7934 0 54.3186 0.553704 55.3763 1.66111C56.4341 2.76852 56.9629 4.33333 56.9629 6.35556V19.6444C56.9629 21.6667 56.4341 23.2315 55.3763 24.3389C54.3186 25.4463 52.7934 26 50.8009 26ZM50.8009 22.3889C52.203 22.3889 52.9041 21.5583 52.9041 19.8972V6.10278C52.9041 4.44167 52.203 3.61111 50.8009 3.61111C49.3988 3.61111 48.6977 4.44167 48.6977 6.10278V19.8972C48.6977 21.5583 49.3988 22.3889 50.8009 22.3889Z" fill="#212529"/>
<path d="M59.7079 0.361111H65.6854C67.7025 0.361111 69.2154 0.890741 70.2239 1.95C71.2325 3.00926 71.7368 4.56204 71.7368 6.60833V9.1C71.7368 11.1463 71.2325 12.6991 70.2239 13.7583C69.2154 14.8176 67.7025 15.3472 65.6854 15.3472H63.7667V25.6389H59.7079V0.361111ZM65.6854 11.7361C66.3496 11.7361 66.8416 11.5556 67.1613 11.1944C67.5057 10.8333 67.6779 10.2194 67.6779 9.35278V6.35556C67.6779 5.48889 67.5057 4.875 67.1613 4.51389C66.8416 4.15278 66.3496 3.97222 65.6854 3.97222H63.7667V11.7361H65.6854Z" fill="#212529"/>
<path d="M73.9412 0.361111H78V25.6389H73.9412V0.361111Z" fill="#212529"/>
</svg>
